# xmcd CD database file
#
# Track frame offsets:
#	150
#	16970
#	40990
#	53345
#	73375
#	80570
#	95935
#	113050
#	126780
#	140350
#	154587
#	173127
#	188502
#	202237
#	215877
#
# Disc length: 3075 seconds
#
# Revision: 0
# Processed by: cddbd v1.5.1PL0 Copyright (c) Steve Scherf et al.
# Submitted via: CDex 1.51
#
DISCID=da0c010f
DTITLE=Jim Martinez - A Jazz Praise - Doxology
DYEAR=2000
DGENRE=Jazz
TTITLE0=How Majestic Is Thy Name
TTITLE1=Just a Closer Walk With Thee
TTITLE2=Here I Am, Lord
TTITLE3=Come, Ye Disconsolate
TTITLE4=Jesus Loves Me
TTITLE5=Be Thou My Vision
TTITLE6=That's For Me
TTITLE7=How Great Thou Art
TTITLE8=This is My Father's World
TTITLE9=A Quiet Place
TTITLE10=Great is Thy Faithfulness
TTITLE11=Doxology
TTITLE12=Jesus Paid It All
TTITLE13=America the Beautiful
TTITLE14=Amazing Grace
EXTD=YEAR: 2000
EXTT0=
EXTT1=
EXTT2=
EXTT3=
EXTT4=
EXTT5=
EXTT6=
EXTT7=
EXTT8=
EXTT9=
EXTT10=
EXTT11=
EXTT12=
EXTT13=
EXTT14=
PLAYORDER=
